# xmcd
#
# Track frame offsets:
#	150
#	10894
#	21743
#	34471
#	48279
#	58281
#	69965
#	80392
#	91886
#	104300
#	114582
#	125008
#	135703
#	147956
#	160378
#	171553
#	182033
#	192299
#
# Disc length: 2707 seconds
# Revision: 0
# Processed by: cddbd v1.5.2PL0 Copyright (c) Steve Scherf et al.
# Submitted via: dBpowerAMP V12.0
#
DISCID=090a9112
DTITLE=Various Artist - 50 Years Of Country Vol. 1 (1950-1965), Disc 1
DYEAR=2000
DGENRE=Country
TTITLE0=Eddy Arnold - The Cattle Call
TTITLE1=Hank Williams - Why Don't You Love Me
TTITLE2=Hank Snow - I'm Movin' On
TTITLE3=Red Foley, Ernest Tubb with The Sunshine Trio - Goodnight Irene
TTITLE4=Moon Mullican - I'll Sail My Ship Alone
TTITLE5=Tenessee Ernie Ford - The Shotgun Boogie
TTITLE6=Les Paul and Mary Ford - Mockin' Bird Hill
TTITLE7=Jimmie Dolan - Hot Rod Race
TTITLE8=Skeets McDonald - Don't Let the Stars Get in Your Eyes
TTITLE9=Hank Thompson - Wake up Irene
TTITLE10=Faron Young - Live Fast, Love Hard, Die Young
TTITLE11=Patsy Cline - Honky Tonk Merry Go Round
TTITLE12=Johnny Cash and The Tenessee Two - I Walk the Line
TTITLE13=Jerry Lee Lewis - Crazy Arms
TTITLE14=Wanda Jackson - I Gotta Know
TTITLE15=Teh Everly Brothers - Bye Bye Love
TTITLE16=Jimmie Rodgers - Honeycomb
TTITLE17=Charlie Rich - Who Will the Next Fool Be
EXTD=
EXTT0=
EXTT1=
EXTT2=
EXTT3=
EXTT4=
EXTT5=
EXTT6=
EXTT7=
EXTT8=
EXTT9=
EXTT10=
EXTT11=
EXTT12=
EXTT13=
EXTT14=
EXTT15=
EXTT16=
EXTT17=
PLAYORDER=
